<svg width="120" height="120" viewBox="0 0 120 120" fill="none" xmlns="http://www.w3.org/2000/svg">
<g filter="url(#filter0_b_710_50)">
<rect width="120" height="120" rx="10.9091" fill="url(#paint0_linear_710_50)" fill-opacity="0.8"/>
<rect x="0.545455" y="0.545455" width="118.909" height="118.909" rx="10.3636" stroke="#E6F0FF" stroke-opacity="0.35" stroke-width="1.09091"/>
</g>
<rect x="5.99956" y="6.00053" width="108" height="108" rx="10.3636" fill="url(#paint1_linear_710_50)" stroke="#F6F9FE" stroke-width="1.09091"/>
<path d="M16.3633 87.2238C16.3633 87.1973 20.4373 74.9245 25.4167 59.951L34.4703 32.7266H42.1975C48.3426 32.7266 49.9248 32.743 49.9248 32.8071C49.9248 32.8513 46.9938 41.7013 43.4114 52.4736C39.8291 63.2458 36.898 72.0811 36.898 72.1075C36.898 72.1339 39.2436 72.1629 42.1105 72.1719L47.3229 72.1884L48.4668 75.8226L49.6108 79.4568L49.3301 80.3252L49.0494 81.1935L41.4457 81.2099L33.842 81.2262L32.8513 84.2485L31.8606 87.2708L24.1119 87.2714C19.8501 87.2718 16.3633 87.2503 16.3633 87.2238Z" fill="url(#paint2_linear_710_50)"/>
<path d="M49.989 87.224C49.989 87.1973 54.063 74.9245 59.0424 59.951L68.0959 32.7266H75.8232C80.0731 32.7266 83.5504 32.7467 83.5504 32.7713C83.5504 32.7959 80.6194 41.6505 77.0371 52.4482C73.4547 63.2459 70.5237 72.0974 70.5237 72.1184C70.5237 72.1392 72.7746 72.1562 75.5258 72.1562H80.528L80.7499 72.8477C81.3182 74.6182 83.2911 80.8914 83.3291 81.0488L83.3719 81.2257H75.4232H67.4746L66.4753 84.2328L65.4761 87.2399L57.7325 87.2562C53.4736 87.2652 49.989 87.2507 49.989 87.224Z" fill="url(#paint3_linear_710_50)"/>
<path d="M45.0425 56.1107L48.7797 44.8366C50.8352 38.6358 52.5365 33.5842 52.5604 33.6108C52.5844 33.6374 53.9912 37.8345 55.6868 42.9378L58.7698 52.2163L54.9485 63.7069C52.6469 70.628 51.1081 75.162 51.0792 75.1081C51.0528 75.0589 49.6837 70.7643 48.0368 65.5647L45.0425 56.1107Z" fill="url(#paint4_linear_710_50)"/>
<path d="M78.303 56.1922C78.2846 56.0782 79.5465 52.196 82.0103 44.787C84.0648 38.6092 85.754 33.5638 85.7642 33.5748C85.785 33.5974 103.636 87.2066 103.636 87.2465C103.636 87.2606 100.147 87.272 95.8836 87.272H88.1311L83.2311 71.8185C80.5361 63.3191 78.3184 56.2873 78.303 56.1922Z" fill="url(#paint5_linear_710_50)"/>
<defs>
<filter id="filter0_b_710_50" x="-10.9091" y="-10.9091" width="141.818" height="141.818" filterUnits="userSpaceOnUse" color-interpolation-filters="sRGB">
<feFlood flood-opacity="0" result="BackgroundImageFix"/>
<feGaussianBlur in="BackgroundImageFix" stdDeviation="5.45455"/>
<feComposite in2="SourceAlpha" operator="in" result="effect1_backgroundBlur_710_50"/>
<feBlend mode="normal" in="SourceGraphic" in2="effect1_backgroundBlur_710_50" result="shape"/>
</filter>
<linearGradient id="paint0_linear_710_50" x1="60" y1="0" x2="60" y2="120" gradientUnits="userSpaceOnUse">
<stop stop-color="#F7F7F7"/>
<stop offset="1" stop-color="white"/>
</linearGradient>
<linearGradient id="paint1_linear_710_50" x1="59.9996" y1="5.45508" x2="59.9996" y2="114.546" gradientUnits="userSpaceOnUse">
<stop stop-color="#E2EEFF"/>
<stop offset="1" stop-color="#EAECEF"/>
</linearGradient>
<linearGradient id="paint2_linear_710_50" x1="59.9996" y1="32.7266" x2="59.9996" y2="87.272" gradientUnits="userSpaceOnUse">
<stop stop-color="#2463EB"/>
<stop offset="1" stop-color="#2059D3"/>
</linearGradient>
<linearGradient id="paint3_linear_710_50" x1="59.9996" y1="32.7266" x2="59.9996" y2="87.272" gradientUnits="userSpaceOnUse">
<stop stop-color="#2463EB"/>
<stop offset="1" stop-color="#2059D3"/>
</linearGradient>
<linearGradient id="paint4_linear_710_50" x1="59.9996" y1="32.7266" x2="59.9996" y2="87.272" gradientUnits="userSpaceOnUse">
<stop stop-color="#2463EB"/>
<stop offset="1" stop-color="#2059D3"/>
</linearGradient>
<linearGradient id="paint5_linear_710_50" x1="59.9996" y1="32.7266" x2="59.9996" y2="87.272" gradientUnits="userSpaceOnUse">
<stop stop-color="#2463EB"/>
<stop offset="1" stop-color="#2059D3"/>
</linearGradient>
</defs>
</svg>
